<svg id="Layer_1" data-name="Layer 1" xmlns="http://www.w3.org/2000/svg" xmlns:xlink="http://www.w3.org/1999/xlink" viewBox="0 0 386.85 486.24"><defs><style>.cls-1{fill:url(#linear-gradient);}.cls-2{fill:url(#linear-gradient-2);}.cls-3{fill:url(#linear-gradient-3);}</style><linearGradient id="linear-gradient" x1="56.57" y1="231.73" x2="443.2" y2="231.73" gradientTransform="matrix(1, 0, 0, -1, 0, 479.37)" gradientUnits="userSpaceOnUse"><stop offset="0" stop-color="#14386a"/><stop offset="0.05" stop-color="#1a5081"/><stop offset="0.13" stop-color="#2371a1"/><stop offset="0.21" stop-color="#2a8bba"/><stop offset="0.3" stop-color="#2f9dcc"/><stop offset="0.38" stop-color="#32a8d7"/><stop offset="0.48" stop-color="#33acda"/><stop offset="0.61" stop-color="#32a9d7"/><stop offset="0.71" stop-color="#2f9ece"/><stop offset="0.81" stop-color="#298dbe"/><stop offset="0.9" stop-color="#2175a8"/><stop offset="0.98" stop-color="#195d92"/></linearGradient><linearGradient id="linear-gradient-2" x1="56.6" y1="69.75" x2="443.43" y2="69.75" xlink:href="#linear-gradient"/><linearGradient id="linear-gradient-3" x1="56.74" y1="408.82" x2="443.29" y2="408.82" xlink:href="#linear-gradient"/></defs><path class="cls-1" d="M307.27,395.53v-7.48c0-31.61.1-63.22-.06-94.83,0-4.12,1.33-6.18,5-8,11.32-5.6,22.41-11.66,33.59-17.52,1.43-.75,2.93-1.37,5.19-2.42v53.14a48.16,48.16,0,0,0,4.68-2c13.44-7.67,26.82-15.44,40.29-23,2.88-1.62,4.76-3.41,4.13-7a24.12,24.12,0,0,1,0-4c0-13.13-.16-12.87-11.72-18.61-25.92-12.87-51.68-26.06-77.55-39-2.84-1.42-3.57-3.3-3.56-6.3.14-25.45,0-50.91.25-76.36,0-3.89-1-5.86-4.81-7.38-10-4-19.77-8.66-30.43-13.41a49.85,49.85,0,0,0-.75,6.11q.09,140.49.37,281c0,5.88-.81,10.19-6.92,12.53a36.62,36.62,0,0,0-9.37,5.68c-4.07,3.26-7.59,2.8-11.64,0-4.22-2.95-9-5.09-13.1-8.18-1.58-1.19-2.69-4-2.71-6.09-.18-21.13-.09-42.26-.08-63.39q0-110.55.05-221.1v-6.33c-3.7,1.47-6.58,2.51-9.38,3.73-7.78,3.39-15.47,7-23.31,10.21-2.59,1.07-3.54,2.43-3.49,5.18.16,9.15.24,18.3,0,27.45,0,1.8-1.16,4.51-2.58,5.2-12.67,6.26-25.52,12.17-38.33,18.15-.4.19-1,0-2.09,0v-36.1c-2.48.84-4.15,1.28-5.72,2-13,5.55-26,11.2-39,16.66-3.12,1.31-5,3-4.35,6.62a6.32,6.32,0,0,1,0,2.49c-2.44,11.08,2.78,16.64,12.66,21.3,25.72,12.12,50.91,25.37,76.22,38.34,1.52.78,3.18,3.11,3.19,4.72q.26,72.38.13,144.74a22.8,22.8,0,0,1-.43,2.71c-6.2-3.67-12-7.06-17.77-10.53q-56.64-34.06-113.21-68.25c-1.81-1.1-3.87-3.62-3.89-5.51-.26-19.29-.13-38.59-.08-57.89a15.61,15.61,0,0,1,.62-2.63l9.83,5.23c9.69,5.15,19.33,10.41,29.11,15.4,2.75,1.4,4.3,3.07,3.65,6.14-2.29,10.77,2.44,16.81,12.14,21.44,12.26,5.84,23.77,13.27,36.21,20.36a32,32,0,0,0,.63-4.13c0-12.81-.09-25.62.07-38.43a6.22,6.22,0,0,0-3.74-6.3c-28.4-14.95-56.74-30-85.17-44.88-2.67-1.4-3.43-3.06-3.42-5.86.08-22.29.11-44.59,0-66.88,0-3.43,1.36-4.85,4.39-6.12q48.36-20.19,96.6-40.7c29.83-12.73,59.52-25.77,89.36-38.5a9.33,9.33,0,0,1,6.56.13q86.29,36.8,172.49,73.84c3.67,1.57,7.17,3.83,11,4.67,5.52,1.22,6.29,4.36,6.22,9.3-.26,17.8-.08,35.6-.07,53.4v6.38c-7.78-3.7-14.92-7-22-10.48-6-2.92-11.81-6.16-17.87-8.9-2.55-1.15-3.87-2.59-3.31-5.25,2.27-10.69-2.47-16.13-12.56-19.44-9.91-3.25-19.23-8.28-28.83-12.47-2.09-.91-4.27-1.6-6.89-2.58-.21,1.82-.47,3.06-.48,4.3-.07,11-.26,22,0,32.94.05,2,1.58,4.89,3.27,5.75q42.16,21.69,84.6,42.82c3,1.51,4.05,3.11,4,6.4q-.19,30.94,0,61.89a6.48,6.48,0,0,1-3.57,6.39q-59.71,35.77-119.32,71.72C316.28,390,312.38,392.43,307.27,395.53Z" transform="translate(-56.57 -6.88)"/><path class="cls-2" d="M56.6,326.12c16.36,9.9,31.67,19.19,47,28.43Q150.85,383,198.12,411.4c16.39,9.86,32.75,19.76,49.24,29.44a6.48,6.48,0,0,0,5.52.15q61.53-36.64,122.87-73.6c19.81-11.92,39.5-24,59.25-36.07,2.51-1.53,5-3,8.08-4.86,1.19,12.07-.77,23.05-4.59,33.73C432,378.29,419.2,390.55,403,400.37c-42.69,25.82-85,52.24-127.51,78.42-7.51,4.63-14.93,9.39-22.58,13.77a6.49,6.49,0,0,1-5.53-.12c-29.94-18.29-59.76-36.77-89.64-55.16-22.24-13.69-44.62-27.17-66.78-41C70.2,383.39,60,364,57.41,340.23,57,335.86,56.9,331.45,56.6,326.12Z" transform="translate(-56.57 -6.88)"/><path class="cls-3" d="M56.74,134.22c0-3.41,0-6.33,0-9.24,0-10.15.15-20.3.1-30.45,0-2.82.83-4.41,3.64-5.62Q100.86,71.65,141.11,54,192.76,31.39,244.23,8.38c4.13-1.85,7.42-2.07,11.67-.18C291.29,24,326.8,39.55,362.29,55.14c25.74,11.31,51.52,22.55,77.22,34,1.52.68,3.58,2.51,3.6,3.83.27,13.46.16,26.93.16,41.19-2.2-.83-4-1.43-5.72-2.17q-62.19-26.55-124.36-53.13c-19.88-8.51-39.67-17.22-59.59-25.62a9.87,9.87,0,0,0-6.94-.08Q178.52,82.24,110.5,111.69C93.69,118.92,76.82,126,60,133.16,59.24,133.48,58.46,133.67,56.74,134.22Z" transform="translate(-56.57 -6.88)"/></svg>